<?xml version="1.0" encoding="utf-8"?>
<!-- Generator: Adobe Illustrator 18.0.0, SVG Export Plug-In . SVG Version: 6.00 Build 0)  -->
<!DOCTYPE svg PUBLIC "-//W3C//DTD SVG 1.1//EN" "http://www.w3.org/Graphics/SVG/1.1/DTD/svg11.dtd">
<svg version="1.1" id="Layer_2" xmlns="http://www.w3.org/2000/svg" xmlns:xlink="http://www.w3.org/1999/xlink" x="0px" y="0px"
	 viewBox="0 0 595.3 114.6" enable-background="new 0 0 595.3 114.6" xml:space="preserve">
<g>
	<g>
		<path fill="#8E732C" d="M578.4,23.8c-3.3,0.2-4.1,3-4.1,3s1.5-10.6-7.8-10.6c-9.5,0-11.1,11.5-11.1,11.5v18.2c0-1.8,4-1.4,4-1.4
			h28.6c0.8,0,2,1.8,2,1.8V35.7c0,1.2-2.4,1.7-2.4,1.7h-11.6c-0.1-5.4,1.6-5.8,7.3-8.3C589,26.6,590,21,590,21v-4.8h-2
			C588.1,20.3,581.7,23.6,578.4,23.8z M569.8,37.4h-8.2v-9.5c0,0,0.5-5.3,4.1-5.3c3.6,0,4.1,4.2,4.1,5.5
			C569.8,29.5,569.8,37.4,569.8,37.4z"/>
		<path fill="#8E732C" d="M590,57.6V46.6c0,0-0.6,1.7-1.7,2.5c-1.3,0.9-29.7,10.5-29.7,10.5s-2.2,0.8-1.9-2.1h-1.2v5.2v5.2h1.2
			c-0.2-2.9,1.9-2.1,1.9-2.1s28.3,9.6,29.7,10.5c1.2,0.8,1.7,2.5,1.7,2.5V67.8c0,0-1,1.9-2.2,1.9s-6.1-2.6-6.1-2.6v-4.3v-4.3
			c0,0,4.9-2.6,6.1-2.6S590,57.6,590,57.6z M577.7,65.8l-7-3.1l7-3.1V65.8z"/>
		<path fill="#8E732C" d="M583.6,78.1c-11.3-0.4-10.2,8.6-10.2,8.6s2.4-8.6-6.8-8.6c-9.5,0-11.1,11.5-11.1,11.5v18.2
			c0-1.8,4-1.4,4-1.4H588c0.8,0,2,1.8,2,1.8c-0.3-0.4,0-1.8,0-2.3c0-1.5,0-3.1,0-4.6c0-3.2,0-6.4,0-9.6c0-3.6,0.1-7.4-1.8-10.5
			C587.3,79.7,585.5,77.9,583.6,78.1z M569.8,99.3h-8.2v-9.5c0,0,0.5-5.3,4.1-5.3s4.1,4.2,4.1,5.5C569.8,91.3,569.8,99.3,569.8,99.3
			z M585.3,99.3h-8.2v-9.5c0,0,0.5-5.3,4.1-5.3s4.1,4.2,4.1,5.5C585.3,91.3,585.3,99.3,585.3,99.3z"/>
	</g>
	<g>
		<path fill="#8E732C" d="M11.8,18.3H39c0,0-3.9,0.6-3.9,5.9s0,67.4,0,67.4h36.2l2.1-3.3h2.7l-6.2,18.1H11.1v-2.1
			c0,0,5.6-5.6,5.6-13.7s0-66.5,0-66.5S17.5,18.3,11.8,18.3z"/>
		<path fill="#8E732C" d="M138.2,106.4h27.9c0,0-4.4-1.4-6.3-4.4c-2.2-3.4-26.7-75.7-26.7-75.7s-2-5.6,5.3-5v-3.1h-13.3h-13.3v3.1
			c7.3-0.6,5.3,5,5.3,5S92.6,98.6,90.5,102c-1.9,3-6.3,4.4-6.3,4.4H112c0,0-4.8-2.5-4.8-5.6c0-3.1,6.7-15.5,6.7-15.5h11.1h11.1
			c0,0,6.7,12.4,6.7,15.5C142.9,104,138.2,106.4,138.2,106.4z M117.1,75.1l8-17.8l8,17.8H117.1z"/>
		<path fill="#8E732C" d="M230.4,76.8c-0.6-8.3-7.7-10.5-7.7-10.5s27.1,3.8,27.1-19.8c0-24.3-29.3-28.3-29.3-28.3H174
			c4.6,0,3.6,10.1,3.6,10.1v72.9c0,2-4.6,5.1-4.6,5.1h27.1c-2.9,0-4.4-6.1-4.4-6.1V70.5c13.7-0.2,14.8,4,21.2,18.6
			c6.3,14.6,20.6,17.3,20.6,17.3h12.3v-5C239.5,101.6,231,85.2,230.4,76.8z M195.8,54.9v-21h24.2c0,0,13.5,1.2,13.5,10.5
			c0,9.3-10.7,10.5-14.1,10.5C216,54.9,195.8,54.9,195.8,54.9z"/>
		<path fill="#8E732C" d="M260.5,18.3h28.8c0,0-4.8,1.2-4.8,8.3v30.3l35.3-33.3c0,0,3.6-5.1-3.6-5.3c-7.2-0.2,29.9,0,29.9,0
			s-5.9-0.2-14.6,8.5s-31.5,32.5-31.5,32.5s11.1,3.8,13.1,11.9c2,8.1,9.7,30.5,22.2,30.7v4.6c0,0-24,2.6-30.5-13.7
			c0,0-7.3-26.3-23.6-23.2v26.1c0,0,0.8,9.5,4.8,10.7h-25.5c0,0,4.4-4.4,4.8-9.5V27c0,0,0-7.7-4.8-7.9"/>
		<path fill="#8E732C" d="M362.5,106.3h13.9c-4.8,0-5.9-6.9-5.9-6.9V27.2c0.2-7.3,4.4-8.9,4.4-8.9l-12.4-0.2L350,18.3
			c0,0,4.3,1.6,4.4,8.9v72.3c0,0-1,6.9-5.9,6.9H362.5z"/>
		<path fill="#8E732C" d="M383.2,18.2c0,0,4.8,1.9,4.8,6.2v75.8c0,0-1.4,6.1-4.8,6.1c-3.4,0,27.1,0,27.1,0s-2.6-1-4-4.9
			s0-49.7,0-49.7l24.2,54.6h21.2c0,0-3.6-4-3.8-7.9s0-74.6,0-74.6s0.4-5.5,3.8-5.6s-26.1-0.1-26.1-0.1s8.7,4.4,8.3,9.5
			s0,52.9,0,52.9l-28.1-62.4L383.2,18.2z"/>
		<path fill="#8E732C" d="M513.5,49.9c0,0,18.7-8.5,18.7-8.5c1.6-0.7-10.2-15.5-11.1-16.3c-10.6-9.4-26.5-8.3-39.1-3.8
			c-16,5.8-21.3,25.5-8.9,37.2c3.6,3.4,8,5.8,12.7,7.3c10.1,3.3,27.3,0.4,27.6,15.4c0.2,6.6-8.8,10.1-14.3,10.3
			c-5.4,0.1-11.3-1.3-15.4-4.9c-2.5-2.3-6.5-8.1-2.4-10.9c0,0-17.8,9.4-17.8,9.4c-1.2,0.6,10.5,12.7,11.7,13.6
			c7.3,5.4,16.3,8.2,25.4,7.8c21.3-1,39.9-23.9,23-41.8c-3.6-3.9-8.5-6.5-13.6-7.9c-6.5-1.8-30.6-2.7-27.5-14.7
			c2.1-8,10.8-10.7,18.3-9.4c3.7,0.6,7.6,2.1,10.1,4.9C512.5,39,516.7,48.5,513.5,49.9z"/>
		<path fill="#8E732C" d="M468.7,13.2c-0.1-2.8-1.3-5.3-4-6.8c-3.3-1.9-7.6-0.6-9.4,2.7c-1.9,3.3-0.6,7.6,2.7,9.4
			c1.8,1,3.8,1.1,5.6,0.4c-0.3,3-1.6,6.1-1.6,6.1C466.1,23.4,469,18,468.7,13.2z"/>
	</g>
	<g>
		<path d="M576,24c-3.3,0.2-4.1,3-4.1,3s1.5-10.6-7.8-10.6c-9.5,0-11.1,11.5-11.1,11.5v18.2c0-1.8,4-1.4,4-1.4h28.6
			c0.8,0,2,1.8,2,1.8V35.8c0,1.2-2.4,1.7-2.4,1.7h-11.6c-0.1-5.4,1.6-5.8,7.3-8.3c5.7-2.5,6.8-8.1,6.8-8.1v-4.8h-2
			C585.7,20.4,579.3,23.7,576,24z M567.4,37.6h-8.2v-9.5c0,0,0.5-5.3,4.1-5.3c3.6,0,4.1,4.2,4.1,5.5
			C567.4,29.6,567.4,37.6,567.4,37.6z"/>
		<path d="M587.6,57.7V46.8c0,0-0.6,1.7-1.7,2.5c-1.3,0.9-29.7,10.5-29.7,10.5s-2.2,0.8-1.9-2.1h-1.2v5.2v5.2h1.2
			c-0.2-2.9,1.9-2.1,1.9-2.1s28.3,9.6,29.7,10.5c1.2,0.8,1.7,2.5,1.7,2.5V68c0,0-1,1.9-2.2,1.9s-6.1-2.6-6.1-2.6v-4.3v-4.3
			c0,0,4.9-2.6,6.1-2.6S587.6,57.7,587.6,57.7z M575.3,66l-7-3.1l7-3.1V66z"/>
		<path d="M581.2,78.2c-11.3-0.4-10.2,8.6-10.2,8.6s2.4-8.6-6.8-8.6c-9.5,0-11.1,11.5-11.1,11.5v18.2c0-1.8,4-1.4,4-1.4h28.6
			c0.8,0,2,1.8,2,1.8c-0.3-0.4,0-1.8,0-2.3c0-1.5,0-3.1,0-4.6c0-3.2,0-6.4,0-9.6c0-3.6,0.1-7.4-1.8-10.5
			C584.9,79.8,583.2,78.1,581.2,78.2z M567.4,99.4h-8.2v-9.5c0,0,0.5-5.3,4.1-5.3c3.6,0,4.1,4.2,4.1,5.5
			C567.4,91.5,567.4,99.4,567.4,99.4z M582.9,99.4h-8.2v-9.5c0,0,0.5-5.3,4.1-5.3c3.6,0,4.1,4.2,4.1,5.5
			C582.9,91.5,582.9,99.4,582.9,99.4z"/>
	</g>
	<g>
		<path d="M7.7,18.3h27.2c0,0-3.9,0.6-3.9,5.9s0,67.4,0,67.4h36.2l2.1-3.3h2.7l-6.2,18.1H6.9v-2.1c0,0,5.6-5.6,5.6-13.7
			s0-66.5,0-66.5S13.3,18.3,7.7,18.3z"/>
		<path d="M134,106.4h27.9c0,0-4.4-1.4-6.3-4.4c-2.2-3.4-26.7-75.7-26.7-75.7s-2-5.6,5.3-5v-3.1h-13.3h-13.3v3.1
			c7.3-0.6,5.3,5,5.3,5S88.5,98.6,86.3,102c-1.9,3-6.3,4.4-6.3,4.4h27.9c0,0-4.8-2.5-4.8-5.6c0-3.1,6.7-15.5,6.7-15.5h11.1H132
			c0,0,6.7,12.4,6.7,15.5C138.8,104,134,106.4,134,106.4z M112.9,75.1l8-17.8l8,17.8H112.9z"/>
		<path d="M226.3,76.8c-0.6-8.3-7.7-10.5-7.7-10.5s27.1,3.8,27.1-19.8c0-24.3-29.3-28.3-29.3-28.3h-46.5c4.6,0,3.6,10.1,3.6,10.1
			v72.9c0,2-4.6,5.1-4.6,5.1H196c-2.9,0-4.4-6.1-4.4-6.1V70.5c13.7-0.2,14.8,4,21.2,18.6c6.3,14.6,20.6,17.3,20.6,17.3h12.3v-5
			C235.4,101.6,226.9,85.2,226.3,76.8z M191.6,54.9v-21h24.2c0,0,13.5,1.2,13.5,10.5c0,9.3-10.7,10.5-14.1,10.5
			C211.8,54.9,191.6,54.9,191.6,54.9z"/>
		<path d="M256.4,18.3h28.8c0,0-4.8,1.2-4.8,8.3v30.3l35.3-33.3c0,0,3.6-5.1-3.6-5.3c-7.2-0.2,29.9,0,29.9,0s-5.9-0.2-14.6,8.5
			c-8.7,8.7-31.5,32.5-31.5,32.5S307,63,309,71.1c2,8.1,9.7,30.5,22.2,30.7v4.6c0,0-24,2.6-30.5-13.7c0,0-7.3-26.3-23.6-23.2v26.1
			c0,0,0.8,9.5,4.8,10.7h-25.5c0,0,4.4-4.4,4.8-9.5V27c0,0,0-7.7-4.8-7.9"/>
		<path d="M358.3,106.3h13.9c-4.8,0-5.9-6.9-5.9-6.9V27.2c0.2-7.3,4.4-8.9,4.4-8.9l-12.4-0.2l-12.4,0.2c0,0,4.3,1.6,4.4,8.9v72.3
			c0,0-1,6.9-5.9,6.9H358.3z"/>
		<path d="M379.1,18.2c0,0,4.8,1.9,4.8,6.2v75.8c0,0-1.4,6.1-4.8,6.1c-3.4,0,27.1,0,27.1,0s-2.6-1-4-4.9s0-49.7,0-49.7l24.2,54.6
			h21.2c0,0-3.6-4-3.8-7.9s0-74.6,0-74.6s0.4-5.5,3.8-5.6s-26.1-0.1-26.1-0.1s8.7,4.4,8.3,9.5s0,52.9,0,52.9l-28.1-62.4L379.1,18.2z
			"/>
		<path d="M509.4,49.9c0,0,18.7-8.5,18.7-8.5c1.6-0.7-10.2-15.5-11.1-16.3c-10.6-9.4-26.5-8.3-39.1-3.8c-16,5.8-21.3,25.5-8.9,37.2
			c3.6,3.4,8,5.8,12.7,7.3c10.1,3.3,27.3,0.4,27.6,15.4c0.2,6.6-8.8,10.1-14.3,10.3c-5.4,0.1-11.3-1.3-15.4-4.9
			c-2.5-2.3-6.5-8.1-2.4-10.9c0,0-17.8,9.4-17.8,9.4c-1.2,0.6,10.5,12.7,11.7,13.6c7.3,5.4,16.3,8.2,25.4,7.8
			c21.3-1,39.9-23.9,23-41.8c-3.6-3.9-8.5-6.5-13.6-7.9c-6.5-1.8-30.6-2.7-27.5-14.7c2.1-8,10.8-10.7,18.3-9.4
			c3.7,0.6,7.6,2.1,10.1,4.9C508.3,39,512.5,48.5,509.4,49.9z"/>
		<path d="M464.6,13.2c-0.1-2.8-1.3-5.3-4-6.8c-3.3-1.9-7.6-0.6-9.4,2.7c-1.9,3.3-0.6,7.6,2.7,9.4c1.8,1,3.8,1.1,5.6,0.4
			c-0.3,3-1.6,6.1-1.6,6.1C462,23.4,464.8,18,464.6,13.2z"/>
	</g>
</g>
</svg>
