<?xml version="1.0" encoding="utf-8"?>
<!-- Generator: Adobe Illustrator 18.0.0, SVG Export Plug-In . SVG Version: 6.00 Build 0)  -->
<!DOCTYPE svg PUBLIC "-//W3C//DTD SVG 1.1//EN" "http://www.w3.org/Graphics/SVG/1.1/DTD/svg11.dtd">
<svg version="1.1" id="Capa_1" xmlns="http://www.w3.org/2000/svg" xmlns:xlink="http://www.w3.org/1999/xlink" x="0px" y="0px"
	 viewBox="0 0 310.6 302.5" enable-background="new 0 0 310.6 302.5" xml:space="preserve">
<g>
	<g>
		<g>
			<path fill="#C19C35" d="M256.3,211.9L221.5,177c-6.9-6.9-18.4-6.7-25.6,0.5L178.3,195c-1.1-0.6-2.3-1.2-3.4-1.9
				c-11.1-6.2-26.2-14.6-42.2-30.5c-16-16-24.4-31.1-30.6-42.3c-0.6-1.2-1.3-2.3-1.9-3.4l11.8-11.7l5.8-5.8
				c7.2-7.2,7.4-18.7,0.5-25.6L83.5,39c-6.9-6.9-18.4-6.7-25.6,0.5L48,49.4l0.3,0.3c-3.3,4.2-6,9.1-8.1,14.2c-1.9,5-3,9.7-3.6,14.4
				c-4.5,38.1,12.9,73,60.2,120.2c65.3,65.3,118,60.4,120.3,60.2c4.9-0.6,9.7-1.7,14.5-3.6c5.2-2,10-4.8,14.2-8l0.2,0.2l9.9-9.7
				C263,230.2,263.2,218.8,256.3,211.9z"/>
		</g>
	</g>
</g>
</svg>
