<svg xmlns="http://www.w3.org/2000/svg" viewBox="116 58.239 143.5 143.506">
  <path id="gluten-free" d="M409.75-95.494A71.834,71.834,0,0,1,338-167.246,71.833,71.833,0,0,1,409.75-239a71.833,71.833,0,0,1,71.75,71.754,71.833,71.833,0,0,1-71.75,71.752Zm-20.324-96.3a32.672,32.672,0,0,0-11.857,2.052,25.642,25.642,0,0,0-8.987,5.776,25.745,25.745,0,0,0-5.72,8.892,31.175,31.175,0,0,0-2.014,11.362,29.965,29.965,0,0,0,2.091,11.286,25.581,25.581,0,0,0,5.946,8.892,27.383,27.383,0,0,0,9.311,5.814,33.954,33.954,0,0,0,12.179,2.09,35.091,35.091,0,0,0,10.127-1.425,29.239,29.239,0,0,0,8.911-4.5v-22.23H391.174v5.776a1.842,1.842,0,0,0,.551,1.348,2.087,2.087,0,0,0,1.539.552h6.916v9.956a26.8,26.8,0,0,1-4.674,1.748,20.974,20.974,0,0,1-5.434.646,21.175,21.175,0,0,1-7.714-1.349,16.261,16.261,0,0,1-5.909-3.914,17.793,17.793,0,0,1-3.8-6.27,24.615,24.615,0,0,1-1.348-8.417,24.076,24.076,0,0,1,1.254-7.979,17.726,17.726,0,0,1,3.572-6.118,15.621,15.621,0,0,1,5.6-3.914,19.055,19.055,0,0,1,7.353-1.368,25.6,25.6,0,0,1,4.426.342,23,23,0,0,1,3.459.874,16.307,16.307,0,0,1,2.793,1.254l.974.561,1.535.884a3.59,3.59,0,0,0,1.862.609,2.438,2.438,0,0,0,.532-.058,2.808,2.808,0,0,0,1.786-1.349l2.926-4.636a27.185,27.185,0,0,0-3.762-2.926,23.464,23.464,0,0,0-4.54-2.261,31.774,31.774,0,0,0-5.4-1.463,34.9,34.9,0,0,0-6.25-.538Zm29.867.607v54.949h10.26V-158.62h20.6v-8.17h-20.6v-16.264h24.4v-8.132H419.294Z" transform="translate(-222 297.239)"/>
</svg>
