<svg xmlns="http://www.w3.org/2000/svg" viewBox="-294 195.238 143.5 143.505">
  <defs>
    <style>
      .cls-1 {
        fill: #fff;
      }
    </style>
  </defs>
  <path id="Subtraction_55" data-name="Subtraction 55" class="cls-1" d="M409.747-95.5A71.831,71.831,0,0,1,338-167.248,71.831,71.831,0,0,1,409.747-239,71.834,71.834,0,0,1,481.5-167.248,71.834,71.834,0,0,1,409.747-95.5Zm-9.833-55.339v13.918a5.584,5.584,0,0,0,1.727,4.079,5.6,5.6,0,0,0,4.079,1.721h5.8a5.606,5.606,0,0,0,4.085-1.721,5.6,5.6,0,0,0,1.721-4.079v-13.918l12.059,6.936a5.768,5.768,0,0,0,2.857.777,6.217,6.217,0,0,0,1.566-.209,5.5,5.5,0,0,0,3.511-2.7l2.9-4.991a5.735,5.735,0,0,0,.568-4.418,5.511,5.511,0,0,0-2.7-3.517l-12.059-6.982,12.059-6.982a5.489,5.489,0,0,0,2.7-3.511,5.756,5.756,0,0,0-.568-4.423l-2.9-4.986a5.5,5.5,0,0,0-3.511-2.7,6.222,6.222,0,0,0-1.566-.208,5.766,5.766,0,0,0-2.856.776l-12.059,6.936v-13.918a5.623,5.623,0,0,0-1.721-4.084,5.623,5.623,0,0,0-4.085-1.721h-5.8a5.6,5.6,0,0,0-4.079,1.721,5.625,5.625,0,0,0-1.727,4.084v13.918l-12.059-6.936a5.741,5.741,0,0,0-2.854-.776,6.189,6.189,0,0,0-1.564.208,5.5,5.5,0,0,0-3.517,2.7l-2.9,4.986a5.74,5.74,0,0,0-.568,4.423,5.5,5.5,0,0,0,2.7,3.511l12.059,6.982-12.059,6.982a5.5,5.5,0,0,0-2.7,3.517,5.736,5.736,0,0,0,.568,4.418l2.9,4.985a5.489,5.489,0,0,0,3.517,2.7,6.188,6.188,0,0,0,1.564.209,5.742,5.742,0,0,0,2.854-.777l12.05-6.931Z" transform="translate(-632 434.239)"/>
</svg>
