<svg xmlns="http://www.w3.org/2000/svg" viewBox="-1990.002 742.241 143.504 143.504">
  <defs>
    <style>
      .cls-1 {
        fill: #fff;
      }
    </style>
  </defs>
  <path id="Subtraction_60" data-name="Subtraction 60" class="cls-1" d="M409.75-95.494A71.834,71.834,0,0,1,338-167.246,71.833,71.833,0,0,1,409.75-239,71.833,71.833,0,0,1,481.5-167.246,71.833,71.833,0,0,1,409.75-95.494Zm-27.169-94.694,22.193,54.949h9.234L436.2-190.186h-8.247a3.375,3.375,0,0,0-2.184.722,3.611,3.611,0,0,0-1.2,1.6L411.69-154.353a34.719,34.719,0,0,0-1.178,3.591c-.354,1.3-.686,2.678-.987,4.085-.347-1.388-.724-2.762-1.121-4.085-.389-1.291-.8-2.5-1.235-3.591L394.21-187.869a3.979,3.979,0,0,0-1.254-1.672,3.46,3.46,0,0,0-2.166-.645h-8.209Z" transform="translate(-2328 981.239)"/>
</svg>
